<svg xmlns="http://www.w3.org/2000/svg" viewBox="0 0 1000 1000" role="img" aria-label="Effective Mobile">
  <g transform="matrix(1.3333333,0,0,-1.3333333,0,720)">
    <path style="fill:#f2ff90;fill-opacity:1;fill-rule:evenodd;stroke:none" d="m 464.91,297 c 12.71,0 23.01,-10.5 23.01,-23.45 0,-2.02 -0.25,-3.99 -0.72,-5.86 l -1.1,-2.85 -2.72,-3.79 -37.63,-36.37 -20.83,-19.48 3.86,4.67 c 4.55,6.73 7.2,14.83 7.2,23.56 0,11.63 -4.72,22.16 -12.35,29.78 l -2.07,1.71 26.64,24.92 0.11,-0.12 0.33,0.41 c 4.16,4.25 9.92,6.87 16.27,6.87 z"/>
    <path style="fill:#525152;fill-opacity:1;fill-rule:evenodd;stroke:none" d="m 349.46,258.12 -0.39,-0.73 c -2.49,-5.89 -3.87,-12.36 -3.87,-19.16 0,-10.19 3.1,-19.66 8.4,-27.52 l 5.2,-6.31 -25.58,-23.95 -0.1,0.12 -0.34,-0.42 c -4.16,-4.24 -9.91,-6.87 -16.26,-6.87 -12.7,0 -23,10.51 -23,23.47 0,4.05 1.01,7.86 2.78,11.19 l 1.05,1.51 z"/>
    <path style="fill:#bcbcbc;fill-opacity:1;fill-rule:evenodd;stroke:none" d="m 342.96,237.48 c 0,27.17 22.03,49.2 49.2,49.2 27.17,0 49.2,-22.03 49.2,-49.2 0,-27.17 -22.03,-49.2 -49.2,-49.2 -27.17,0 -49.2,22.03 -49.2,49.2 z"/>
    <path style="fill:#4e4e4e;fill-opacity:1;fill-rule:evenodd;stroke:none" d="m 428.53,270 3.11,-3.34 3.25,-4.3 c 11.89,-19.57 8.76,-45.53 -8.78,-61.84 -20.03,-18.64 -51.29,-17.61 -69.81,2.3 z"/>
    <text style="font-weight:bold;font-size:60px;font-family:Arial;fill:#e8e8e8;fill-opacity:1" transform="matrix(1,0,0,-1,385.25,171.6)">
      <tspan y="0" x="0 39.959999">EM</tspan>
    </text>
  </g>
</svg>
